<?xml version="1.0" encoding="UTF-8"?>
<!DOCTYPE svg PUBLIC "-//W3C//DTD SVG 1.1//EN" "http://www.w3.org/Graphics/SVG/1.1/DTD/svg11.dtd">
<svg xmlns="http://www.w3.org/2000/svg" version="1.1" width="48px" height="48px" style="shape-rendering:geometricPrecision; text-rendering:geometricPrecision; image-rendering:optimizeQuality; fill-rule:evenodd; clip-rule:evenodd" xmlns:xlink="http://www.w3.org/1999/xlink">
<g><path style="opacity:1" fill="#1e78d3" d="M 25.5,5.5 C 25.5,6.83333 25.5,8.16667 25.5,9.5C 26.552,9.35055 27.552,9.51722 28.5,10C 26.9825,11.6851 25.3159,13.1851 23.5,14.5C 21.6841,13.1851 20.0175,11.6851 18.5,10C 19.448,9.51722 20.448,9.35055 21.5,9.5C 21.5,8.16667 21.5,6.83333 21.5,5.5C 21.5,4.5 21.5,3.5 21.5,2.5C 22.8333,2.5 24.1667,2.5 25.5,2.5C 25.5,3.5 25.5,4.5 25.5,5.5 Z"/></g>
<g><path style="opacity:1" fill="#8fc9f8" d="M 21.5,5.5 C 21.5,6.83333 21.5,8.16667 21.5,9.5C 20.448,9.35055 19.448,9.51722 18.5,10C 20.0175,11.6851 21.6841,13.1851 23.5,14.5C 25.3159,13.1851 26.9825,11.6851 28.5,10C 27.552,9.51722 26.552,9.35055 25.5,9.5C 25.5,8.16667 25.5,6.83333 25.5,5.5C 29.1667,5.5 32.8333,5.5 36.5,5.5C 36.5,8.83333 36.5,12.1667 36.5,15.5C 36.5,16.5 36.5,17.5 36.5,18.5C 27.8333,18.5 19.1667,18.5 10.5,18.5C 10.5,17.5 10.5,16.5 10.5,15.5C 10.5,12.1667 10.5,8.83333 10.5,5.5C 14.1667,5.5 17.8333,5.5 21.5,5.5 Z"/></g>
<g><path style="opacity:0.987" fill="#606060" d="M 10.5,15.5 C 10.5,16.5 10.5,17.5 10.5,18.5C 19.1667,18.5 27.8333,18.5 36.5,18.5C 36.5,17.5 36.5,16.5 36.5,15.5C 38.0481,15.8212 38.7148,16.8212 38.5,18.5C 40.1439,18.2865 41.6439,18.6198 43,19.5C 43.498,22.4816 43.6646,25.4816 43.5,28.5C 30.1667,28.5 16.8333,28.5 3.5,28.5C 3.33537,25.4816 3.50204,22.4816 4,19.5C 5.35613,18.6198 6.85613,18.2865 8.5,18.5C 8.28519,16.8212 8.95186,15.8212 10.5,15.5 Z"/></g>
<g><path style="opacity:1" fill="#16c671" d="M 38.5,21.5 C 40.337,21.6395 40.6704,22.3061 39.5,23.5C 38.7025,23.0431 38.3691,22.3764 38.5,21.5 Z"/></g>
<g><path style="opacity:0.983" fill="#414141" d="M 3.5,28.5 C 16.8333,28.5 30.1667,28.5 43.5,28.5C 43.6653,32.1817 43.4986,35.8484 43,39.5C 40.9592,40.4231 38.7925,40.7564 36.5,40.5C 36.5,38.8333 36.5,37.1667 36.5,35.5C 38.2327,34.9924 38.566,34.159 37.5,33C 27.8161,32.1679 18.1495,32.3345 8.5,33.5C 8.85549,34.5223 9.52216,35.189 10.5,35.5C 10.5,37.1667 10.5,38.8333 10.5,40.5C 8.2075,40.7564 6.04083,40.4231 4,39.5C 3.50137,35.8484 3.3347,32.1817 3.5,28.5 Z"/></g>
<g><path style="opacity:1" fill="#242424" d="M 36.5,35.5 C 32.5549,34.1745 28.2216,33.5079 23.5,33.5C 18.7784,33.5079 14.4451,34.1745 10.5,35.5C 9.52216,35.189 8.85549,34.5223 8.5,33.5C 18.1495,32.3345 27.8161,32.1679 37.5,33C 38.566,34.159 38.2327,34.9924 36.5,35.5 Z"/></g>
<g><path style="opacity:1" fill="#42a5f5" d="M 36.5,35.5 C 27.8333,35.5 19.1667,35.5 10.5,35.5C 14.4451,34.1745 18.7784,33.5079 23.5,33.5C 28.2216,33.5079 32.5549,34.1745 36.5,35.5 Z"/></g>
<g><path style="opacity:1" fill="#90caf9" d="M 10.5,35.5 C 19.1667,35.5 27.8333,35.5 36.5,35.5C 36.5,37.1667 36.5,38.8333 36.5,40.5C 32.5549,41.8255 28.2216,42.4921 23.5,42.5C 18.7784,42.4921 14.4451,41.8255 10.5,40.5C 10.5,38.8333 10.5,37.1667 10.5,35.5 Z"/></g>
<g><path style="opacity:1" fill="#1975d2" d="M 15.5,37.5 C 18.5719,37.1826 21.5719,37.5159 24.5,38.5C 23,38.8333 21.5,39.1667 20,39.5C 18.0145,39.4313 16.5145,38.7647 15.5,37.5 Z"/></g>
<g><path style="opacity:1" fill="#1975d2" d="M 26.5,37.5 C 28.288,37.2148 29.9547,37.5481 31.5,38.5C 30.6667,38.8333 29.8333,39.1667 29,39.5C 27.6244,39.3158 26.7911,38.6491 26.5,37.5 Z"/></g>
</svg>
